<?xml version="1.0" encoding="utf-8"?>
<!-- Generator: Adobe Illustrator 17.0.0, SVG Export Plug-In . SVG Version: 6.00 Build 0)  -->
<!DOCTYPE svg PUBLIC "-//W3C//DTD SVG 1.1//EN" "http://www.w3.org/Graphics/SVG/1.1/DTD/svg11.dtd">
<svg version="1.1" id="Layer_1" xmlns="http://www.w3.org/2000/svg" xmlns:xlink="http://www.w3.org/1999/xlink" x="0px" y="0px"
	 width="225px" height="49px" viewBox="0 0 225 49" enable-background="new 0 0 225 49" xml:space="preserve">
<g>
	<rect fill="#D61F27" width="225" height="49"/>
	<rect x="44.38" fill="#020303" width="44.78" height="49"/>
	<rect x="133.94" fill="#020303" width="44.79" height="49"/>
	<path fill-rule="evenodd" clip-rule="evenodd" fill="#FFFFFF" d="M23.42,44.54c9.46,0,16.82-3.8,19.11-12.67l-11.82-2.86
		c-1.73,4.72-3.15,6.48-6.43,6.48c-2.97,0-4.7-1.52-4.7-4.91c0-2.33,0.74-5.37,1.55-8.05c1.92-6.72,4.08-9.17,7.61-9.17
		c3.95,0,4.94,2.92,3.64,7.41h11.57L48.41,4.9h-7.92l-2.6,3.73c-1.79-2.51-5.88-4.67-11.38-4.67C12.1,3.96,3.68,14.7,3.68,28.01
		C3.68,39.11,11.66,44.54,23.42,44.54z M65.41,36.01c-2.96,0-3.89-1.98-3.89-4.73c0-3.85,2.91-18.74,8.78-18.74
		c3.09,0,3.84,2.11,3.84,4.85C74.14,21.18,71.23,36.01,65.41,36.01z M65.54,44.54c14.9,0,24.49-9.87,24.49-23.3
		c0-11.44-9.52-17.22-19.79-17.22c-14.85,0-24.87,9.69-24.87,23.24C45.37,38.76,55.21,44.54,65.54,44.54z M134.26,14.47
		c0-6.48-5.82-9.57-15.03-9.57H97.08l-1.98,7h1.55c1.24,0,1.48,0.59,0.99,2.34l-5.69,20.08c-0.5,1.75-1.11,2.34-2.35,2.34h-1.55
		l-1.98,7h22.21l1.98-7h-1.55c-1.24,0-1.48-0.59-0.99-2.34l2.12-8.3c1.79,0.17,2.27,2.99,2.27,5.09c0,1.34-0.18,2.68-0.18,4.32
		c0,3.79,1.48,6.48,4.08,8.23H129l2.04-7h-0.93c-0.92,0-1.17-0.24-1.23-0.88l-0.19-2.8c-0.31-3.68-2.53-6.07-6.86-7.13
		C128.32,25.39,134.26,22,134.26,14.47z M114.03,11.96h0.81c2.53,0,3.58,1.34,3.58,3.39c0,4.26-1.98,6.71-6.31,6.71h-0.92
		L114.03,11.96z M152.79,44.54c13.95,0,21.57-5.26,21.57-14.95c0-5.25-4.7-8.46-10.14-10.51c-5.58-2.1-7.89-2.74-7.89-4.61
		c0-1.81,1.7-2.98,4.49-2.98c2.11,0,3.06,0.47,4.63,1.29l-1.3,3.79h12.32l2.85-8.7c-4.08-1.69-9.45-3.85-18.77-3.85
		c-13,0-21.44,5.78-21.44,14.65c0,5.2,4.22,8.47,9.8,10.45c5.17,1.81,7.96,3.1,7.96,5.08c0,1.81-1.63,2.92-4.29,2.92
		c-2.24,0-3.81-0.58-5.44-1.34l1.5-4.56h-13.13l-3.07,9.4C136.32,42.26,143.4,44.54,152.79,44.54z M201.71,34.32
		c0,1.87-0.56,2.34-2.1,2.34h-0.99l-2.04,7h22.7l2.04-7h-0.93c-1.55,0-2.1-0.47-2.29-2.34L215.5,4.9h-16.08l-20.6,29.83
		c-1.23,1.75-1.29,1.93-2.84,1.93h-0.87l-2.04,7h16.27l2.04-7h-0.74c-1.61,0-1.36-0.65-0.19-2.52l1.86-3.09h9.15L201.71,34.32z
		 M200.84,16.34l0.5,8.29h-5.44L200.84,16.34z"/>
</g>
</svg>
